<svg xmlns="http://www.w3.org/2000/svg" width="48" height="48" fill="#206cfd" stroke="#206cfd" stroke-width=".4" xmlns:v="https://vecta.io/nano"><path d="M35.728 38.827c.04-.077.051-.168.029-.253-.446-1.743-1.763-3.263-3.962-4.389l3.933 4.641zm0 0c-.04.077-.107.133-.186.156l.186-.156zm-4.198-4.044a.32.32 0 0 1-.174-.187l4.115 4.4m-3.941-4.213l-.091.178m.091-.178l-.078.184m.078-.184c2.037 1.039 3.236 2.413 3.633 3.967.037.149.165.251.308.246m-4.026-4.032a.52.52 0 0 1-.276-.3h0c-.049-.134-.044-.284.014-.414l.183.081-.183-.081c.058-.131.166-.236.304-.282h0 0a.49.49 0 0 1 .405.043c2.232 1.144 3.595 2.703 4.059 4.514h0c.034.132.018.274-.046.395h0a.51.51 0 0 1-.302.253c-.04.013-.082.021-.125.023m-4.033-4.232c1.999 1.021 3.146 2.355 3.525 3.835.058.231.262.405.509.397m0 0l-.007-.2m.007.2l-.007-.2m-3.921-4.839h0 0zm-18.37 4.593l.194.05c.391-1.516 1.722-2.884 3.66-3.875s4.442-1.586 7.131-1.576h.001c1.019-.003 2.036.083 3.042.256h0c.294.051.547-.167.589-.447h0c.041-.278-.133-.562-.422-.612h0a18.82 18.82 0 0 0-3.196-.269c-2.932 0-5.632.648-7.721 1.751s-3.584 2.666-4.064 4.508v.001c-.034.132-.018.274.046.395h0a.51.51 0 0 0 .306.254l.011.003.011.002c.046.008.092.009.138.002a.49.49 0 0 0 .121-.021l.068-.012-.001-.014a.53.53 0 0 0 .281-.35l-.194-.048zm0 0c.821-3.187 5.55-5.621 10.985-5.601l-11.253 5.845c.127-.013.234-.11.267-.244zm-.565.09c-.04-.077-.051-.167-.029-.252.923-3.539 5.784-6.11 11.591-6.11L12.616 38.84zm0 0a.31.31 0 0 0 .065.086l.005.081h0l.115-.006h0l.027-.002c.019.001.038 0 .057-.003l-.269-.156z"/><path d="M10.496 39.991h27.763c.294 0 .508-.253.508-.532s-.213-.532-.508-.532H10.496c-.295 0-.508.253-.508.532s.213.532.508.532zm14.551-6.662h-.009c-.269.002-.477-.209-.508-.465l-.002-.012v-.012l-.009-.095-.029-.291-.124-1.041-.537-3.351c-.249-1.291-.572-2.682-.979-3.959s-.897-2.432-1.475-3.255a.55.55 0 0 1 .095-.734h0 0c.228-.187.553-.134.721.102h.001 0c1.267 1.805 2.09 4.86 2.602 7.478l.735 4.969.007.071-.49.594zm0 0h.009m-.009.001h.009m0 0l.037-.003h0m-.037.003l.037-.003m0 0l.01-.002m-.01.002l.01-.002m0 0c.286-.042.465-.314.434-.588l-.434.588zm-5.812-10.368c1.107 3.259 1.744 6.543 1.849 10.013 0 .183.138.332.308.332.082 0 .16-.035.217-.097a.35.35 0 0 0 .09-.235l-2.201-10.159c-.024.01-.053-.002-.083-.022.002-.009.005-.018.009-.029m-.191.198a.21.21 0 0 1-.027-.08c-.009-.008-.015-.013-.021-.017l.006.003a1.14 1.14 0 0 1 .041-.165m0 .259l-.174.098c-.003-.006-.007-.012-.01-.019m.184-.079l-.189.064m.189-.324c.015-.047.061-.009.113.036a.85.85 0 0 0 .065.053.16.16 0 0 0 .012-.027m-.191-.061l-.19-.061c-.03.094-.073.242.006.4m.184-.338l-.191-.061a.23.23 0 0 1 .142-.149c.08-.027.148-.001.174.011a.42.42 0 0 1 .082.053c.015-.022.035-.047.061-.068a.24.24 0 0 1 .136-.054c.06-.004.109.016.145.038a.53.53 0 0 1 .239.351c1.138 3.344 1.766 6.582 1.877 10.146v.006h0a.55.55 0 0 1-.143.371h0c-.094.101-.224.161-.364.161-.293 0-.506-.251-.508-.529-.105-3.442-.736-6.701-1.834-9.937m.375-.277h0 0zm-.041-.106z"/><path d="M19.833 23.282h0a2.19 2.19 0 0 1-1.606-.717l1.607.717zm0 0c.605-.001 1.182-.261 1.605-.718h0c.422-.456.658-1.071.659-1.71h0l-2.264 2.428zm.006-3.788h-.006c-.326 0-.643.14-.878.394h0c-.236.255-.371.604-.371.97h0a1.43 1.43 0 0 0 .372.97l.883-2.335zm0 0c.323.002.637.141.871.393h0c.236.254.371.602.372.968a1.43 1.43 0 0 1-.369.971h0c-.235.255-.551.395-.877.396s-.643-.139-.879-.393l.883-2.335zm-2.27 1.36a2.52 2.52 0 0 0 .658 1.711l3.213-3.422a2.19 2.19 0 0 0-1.606-.717 2.19 2.19 0 0 0-1.606.717 2.52 2.52 0 0 0-.658 1.711z"/><path d="M21.944 20.656l.024-.002v-.002a2.21 2.21 0 0 0 1.317-.695m-1.341.698l-.975-.575c.029-.276.264-.5.553-.473h.155.001c.326.001.643-.138.879-.392s.372-.603.373-.97h0a1.43 1.43 0 0 0-.37-.971h0c-.236-.255-.552-.395-.878-.395h0c-.326 0-.642.139-.878.394h0a1.43 1.43 0 0 0-.371.97c0 .184.032.365.095.535l.004.01h0a.54.54 0 0 1-.287.656c-.26.114-.545-.017-.656-.267l-.005-.011h0a2.64 2.64 0 0 1-.167-.923h0a2.52 2.52 0 0 1 .658-1.712h0a2.19 2.19 0 0 1 1.607-.716 2.19 2.19 0 0 1 1.607.718c.422.457.657 1.073.657 1.713a2.52 2.52 0 0 1-.66 1.711m-1.341.698a2.12 2.12 0 0 1-.26.017l.26-.017zm1.341-.698l-.147-.136.147.136z"/><path d="M18.718 20.037h0c.051.277-.113.568-.401.63l-.008.002-.008.001c-.054.007-.108.008-.162.002a2.19 2.19 0 0 1-1.594-.717l2.172.082zm0 0c-.051-.273-.3-.476-.584-.429m.584.429l-.584-.429m-1.588-3.075a2.52 2.52 0 0 0-.658 1.711 2.52 2.52 0 0 0 .658 1.711v-3.422zm0 0l.147.136h2.919l.147-.136a2.19 2.19 0 0 0-1.606-.717 2.19 2.19 0 0 0-1.606.717zm.729 2.681a1.43 1.43 0 0 1-.371-.97 1.43 1.43 0 0 1 .371-.97c.236-.254.552-.394.878-.394s.642.14.878.394l-1.756 1.94zm0 0c.231.25.54.389.86.394m-.86-.394l.86.394m.387.466c.034.183-.076.362-.246.398a.47.47 0 0 1-.123 0l.369-.398z"/><path d="M9.966 16.112c-.271-.069-.56.075-.653.343-.117.324-.39.619-.721.872a4.98 4.98 0 0 1-.699.44 3.75 3.75 0 0 1 1.287-3.043 4.99 4.99 0 0 1 1.585-.955c2.385-.538 4.067.09 5.167.864a6.13 6.13 0 0 1 1.666 1.755l.02.032a.55.55 0 0 0 .726.214h.001c.262-.134.371-.453.23-.717h0l-.005-.008a6.87 6.87 0 0 0-1.915-2.072c-1.199-.871-3.234-1.757-6.161-1.099h0-.002a2.28 2.28 0 0 0-.225.082l-.49.227a6.37 6.37 0 0 0-1.405.981c-.989.92-1.872 2.403-1.476 4.625h0v.002a.53.53 0 0 0 .269.367.55.55 0 0 0 .458.036h0l.002-.001a6.54 6.54 0 0 0 1.561-.845l.045.429h0v.003c.046.282.308.471.587.446h0l.006-.001a7.14 7.14 0 0 0 1.699-.442c.446-.177.881-.405 1.214-.683.102.346.239.681.41 1.001h0l.005.008c.096.161.271.259.457.263a.59.59 0 0 0 .214-.021 16.08 16.08 0 0 0 1.145-.474c.565-.256 1.225-.586 1.592-.883a1.04 1.04 0 0 0 .267-.327.51.51 0 0 0 .058-.235c-.003-.097-.043-.193-.131-.263-.008-.021-.021-.046-.043-.07-.036-.038-.077-.053-.1-.059s-.04-.006-.048-.007c-.015-.001-.033 0-.046 0h-.002-.006l-.162.003c-.164 0-.374.066-.585.149-.218.086-.466.203-.715.328l-.657.34-.507.263c-.149-.445-.262-.901-.337-1.364m-3.58-.505a.53.53 0 0 1 .397.616c-.068.394-.099.793-.094 1.192a5.51 5.51 0 0 0 1.222-.493c.483-.269.87-.597 1.04-.948.097-.208.316-.329.542-.31l.01.001h0a.54.54 0 0 1 .464.446m-3.58-.505l-.049.194.05-.194zm3.58.505l-.197.032.197-.032zM7.713 18.08l.192-.094-.209-.12.017.213zm15.647.353a.34.34 0 0 0 .121.457l-.121-.457zm0 0a.32.32 0 0 1 .442-.124l-.442.124zm.019.629h0l.003.002 1.044.592a.51.51 0 0 0 .241.07.48.48 0 0 0 .22-.029h0l.011-.005a.53.53 0 0 0 .296-.362h0l.221-.958c.607.607 1.37 1.029 2.204 1.211h0l.005.001c.282.055.546-.131.607-.405h0v-.004a3.54 3.54 0 0 0 .064-.504 7.55 7.55 0 0 0 1.306.785h0l.002.001a.51.51 0 0 0 .463-.019.53.53 0 0 0 .265-.38c.417-2.518-.599-4.064-1.736-4.971-.564-.449-1.155-.74-1.608-.918l-.561-.19-.169-.043-.053-.011-.021-.004h0c-2.312-.276-4.062.63-5.234 1.6-.586.486-1.03.989-1.329 1.374l-.341.472-.119.188-.009.014-.006.015c-.107.245-.02.537.212.676h0c.234.141.532.073.688-.148l.066-.099c.422-.648 2.267-3.48 5.898-3.052a5.28 5.28 0 0 1 1.867.884c.806.614 1.559 1.623 1.503 3.277-.218-.135-.451-.295-.664-.471-.312-.257-.561-.532-.672-.794a.52.52 0 0 0-.66-.289h0c-.264.1-.398.391-.317.657l.191-.058-.192.057c.107.363.17.739.187 1.117-.528-.22-1.257-.66-1.597-1.468h0a.52.52 0 0 0-.526-.319h0c-.228.021-.411.189-.461.409l-.326 1.424-.436-.249a.52.52 0 0 0-.718.201h0a.54.54 0 0 0 .194.726z"/><path d="M18.185 16.08l-.009-.001a.52.52 0 0 1-.357-.191l.155-.126a.34.34 0 0 1-.073-.244l.284.562zm0 0h.009.029m-.037 0l3.241-4.779.266-1.241a.42.42 0 0 0-.141-.25c-.174-.069-.364-.074-.541-.015-.466.337-.844.852-1.148 1.451-.308.607-.534 1.289-.699 1.933s-.267 1.244-.33 1.686l-.066.529-.012.108-.004.042-.005.044-.003.022c-.03.264-.249.472-.52.471m4.5-4.119h0a.54.54 0 0 0-.077-.274l-.16-.265.229-1.126a.5.5 0 0 0 .029-.251c-.03-.462-.268-.885-.647-1.142l-.01-.007-.011-.006c-.463-.237-1-.267-1.485-.082l-.011.004-.01.005-.071.037-.012.006-.011.007c-1.23.855-1.918 2.5-2.301 3.907-.374 1.374-.471 2.577-.476 2.733l4.822-3.545.2-.001zm0 0l.016 2.069v.002c0 .288-.228.532-.522.532s-.521-.243-.522-.531m1.027-2.072l-1.027 2.072m0 0h0zm-3.473 2.047v-.2.2h0zm3.247-4.318l.21.355-.211-.355h0zm10.37 9.632c-2.294 1.88-3.316 5.31-3.751 8.376-.224 1.58-.29 3.048-.3 4.127l.016 1.292.016.362.006.099.002.027.001.011a.55.55 0 0 1-.115.382h0a.5.5 0 0 1-.351.191h-.001c-.294.023-.525-.212-.544-.491v-.003h0a31.85 31.85 0 0 1 .285-6.349h0c.671-4.502 2.255-7.712 4.739-9.309.059-.038.137-.073.217-.095.072-.019.188-.037.295.009h.001c.149.065.255.197.295.352l-.81 1.018zm0 0a28.15 28.15 0 0 1 .522 5.65c-.03 2.771-.511 6.017-2.104 8.876h0c-.135.243-.068.564.17.719h0l.005.003a.51.51 0 0 0 .258.076l.004-.2m1.146-15.124l-.881 14.971c-.058.097-.158.155-.265.153m0 0a.31.31 0 0 1-.157-.046m.157.046l-.157-.046m0 0c-.145-.095-.192-.298-.105-.455 3.116-5.592 2.021-12.615 1.583-14.762l-1.479 15.217zm-2.98-.524a.35.35 0 0 0 .072-.243l-.072.243zm0 0h0 0zm0 0c-.053.067-.129.109-.21.116m.21-.116l-.21.116m0 0c-.169.013-.316-.123-.329-.306l.329.306z"/><path d="M32.184 36.925l-.013-.002-6.387-.863h0c-.291-.039-.473-.317-.441-.595l6.841 1.46zm0 0h.014m-.014 0h.014m0 0h.031c.291.016.517-.221.534-.498h0m-.564.498l.564-.498m0 0c.017-.277-.177-.54-.466-.565L25.915 35m6.847 1.427L25.915 35m0 0c-.295-.04-.539.186-.572.466l.572-.466zm7.15-5.999c-.029-.082-.088-.148-.163-.184-2.827-1.335-3.424-4.751-3.424-4.788-.03-.184-.192-.306-.362-.274m3.948 5.246l-.418.424c-3.135-1.481-3.759-5.123-3.784-5.279m4.202 4.856a.36.36 0 0 1-.006.254l.006-.254zm-3.948-5.246l-.037-.197.037.197zm0 0c-.17.032-.283.207-.254.39m0 0l-.198.031m.198-.031l-.197.032m0 0c.015.092.182 1.062.744 2.2s1.529 2.461 3.149 3.227m-3.893-5.427l3.893 5.427m0 0l-.003.041.173.005.04.001-.21-.047z"/><path d="M28.064 26.47a.29.29 0 0 1 .24.023.33.33 0 0 1 .151.202l-.391-.225zm0 0c-.079.028-.145.09-.181.171s-.041.175-.012.259h0c.052.175 1.298 4.164 4.174 5.613l-3.981-6.043zm4.171 6.305h.157l.007-.026a.53.53 0 0 0 .341-.398h0a.54.54 0 0 0-.289-.593h0c-1.283-.624-2.235-1.883-2.87-3.014a12.73 12.73 0 0 1-.704-1.472l-.173-.46-.042-.126-.006-.02-.006-.022a.53.53 0 0 0-.245-.324h0a.49.49 0 0 0-.405-.038h0 0c-.134.047-.24.15-.297.278a.56.56 0 0 0-.019.406c.045.133.375 1.187 1.059 2.39.696 1.225 1.767 2.633 3.282 3.37a.49.49 0 0 0 .213.05zm5.516-18.025h-5.346c-.769.01-1.485-.424-1.878-1.138s-.403-1.6-.026-2.324 1.082-1.176 1.852-1.186C32.522 8.916 33.752 8 35.198 8s2.689.926 2.861 2.115c.769.059 1.451.557 1.788 1.306a2.49 2.49 0 0 1-.154 2.324c-.432.689-1.172 1.078-1.942 1.018v-.013zm-5.346-3.995c-.55 0-1.057.316-1.332.83s-.275 1.147 0 1.66.783.83 1.332.83h5.346c.55 0 1.057-.316 1.332-.83s.275-1.147 0-1.66-.783-.83-1.332-.83c-.081-.001-.159-.037-.215-.1a.36.36 0 0 1-.092-.239c.002-.015.002-.031 0-.047 0-.936-1.003-1.706-2.246-1.706s-2.252.77-2.252 1.72v.033c.002.089-.029.175-.086.239s-.138.1-.221.1h-.234z"/></svg>